<?xml version="1.0" encoding="UTF-8"?>
<svg version="1.1" xmlns="http://www.w3.org/2000/svg" width="906" height="700">
<path d="M0 0 C298.98 0 597.96 0 906 0 C906 231 906 462 906 700 C607.02 700 308.04 700 0 700 C0 469 0 238 0 0 Z " fill="#FEFEFE" transform="translate(0,0)"/>
<path d="M0 0 C71.94 0 143.88 0 218 0 C216.62238984 4.13283049 215.29439578 7.6941283 213.42578125 11.5625 C212.9268335 12.59906738 212.42788574 13.63563477 211.91381836 14.70361328 C211.3853833 15.7914209 210.85694824 16.87922852 210.3125 18 C209.76795166 19.12776855 209.22340332 20.25553711 208.66235352 21.41748047 C205.44211474 28.07286446 202.16835276 34.69706723 198.8359375 41.296875 C196.34021583 46.28831834 193.96162997 51.33666486 191.5625 56.375 C188.49256516 62.820418 185.40772056 69.25322216 182.1875 75.625 C178.41278412 83.1034747 174.76480425 90.64271144 171.125 98.1875 C170.82143585 98.81669342 170.5178717 99.44588684 170.20510864 100.09414673 C165.9073364 109.00652561 161.64807811 117.93678517 157.40893555 126.87719727 C154.66917208 132.63881711 151.84319733 138.35148911 148.96728516 144.04614258 C146.39498173 149.15906444 143.93629005 154.32106939 141.5 159.5 C137.46487934 168.06906984 133.26572947 176.54394537 129 185 C121.58872934 199.70910351 114.31321572 214.47044974 107.2734375 229.36132812 C105.55315193 232.92590758 103.77006266 236.45987467 102 240 C-137.25 240 -376.5 240 -623 240 C-620.59286697 233.98216742 -618.23466929 228.16823705 -615.3828125 222.38671875 C-615.04919205 221.70289124 -614.71557159 221.01906372 -614.37184143 220.31451416 C-613.66060382 218.85767308 -612.94778993 217.40160059 -612.23348999 215.94625854 C-611.09995357 213.63646314 -609.97090792 211.3245201 -608.84301758 209.01196289 C-607.30145301 205.85172806 -605.75854458 202.69215634 -604.21435547 199.53320312 C-596.00527939 182.73418322 -587.90567712 165.89301254 -580.1159668 148.89453125 C-577.20748614 142.56404972 -574.21302077 136.29578428 -571.05908203 130.08447266 C-567.59035018 123.23999974 -564.29374309 116.3146823 -560.984375 109.39208984 C-558.04123646 103.24082101 -555.08093252 97.09872768 -552.09375 90.96875 C-545.26066778 76.94114151 -538.51196759 62.89239453 -532.02001953 48.70263672 C-529.3965419 42.98155899 -526.7162028 37.30356409 -523.875 31.6875 C-519.09376721 22.20215107 -514.56685866 12.59040318 -510 3 C-471.72 3 -433.44 3 -394 3 C-394 10.26 -394 17.52 -394 25 C-428.32 25 -462.64 25 -498 25 C-498.66 26.98 -499.32 28.96 -500 31 C-501.06813599 33.2259842 -502.17732904 35.43244281 -503.3125 37.625 C-507.21059141 45.26681211 -510.84062179 53.02523272 -514.4375 60.8125 C-515.00452089 62.03891657 -515.57157816 63.26531632 -516.13867188 64.49169922 C-517.24653199 66.887806 -518.35425283 69.28397704 -519.46191406 71.68017578 C-524.41699006 82.37527473 -529.46887791 93.01359335 -534.77734375 103.5378418 C-539.48498527 112.9038961 -543.96803206 122.38000221 -548.48730469 131.83789062 C-549.90686009 134.80530211 -551.3313116 137.77029742 -552.7578125 140.734375 C-557.81916093 151.26367237 -562.78797389 161.83216088 -567.6875 172.4375 C-571.1370006 179.90220724 -574.59994921 187.34955538 -578.3125 194.6875 C-582.36124475 202.71636671 -586.17125742 210.86392202 -590 219 C-254.39 219.495 -254.39 219.495 88 220 C88.66 218.02 89.32 216.04 90 214 C90.95808444 211.88525739 91.95288885 209.78690867 92.9765625 207.703125 C93.26287537 207.11655624 93.54918823 206.52998749 93.84417725 205.92564392 C94.45365554 204.67704935 95.06461135 203.42917506 95.67694092 202.18197632 C100.05960809 193.25087766 104.4058565 184.3118968 108.375 175.1875 C110.95381817 169.26835145 113.71555293 163.48935595 116.64990234 157.73901367 C120.67669282 149.77910146 124.36603684 141.65813672 128.08081055 133.54931641 C130.90148552 127.41840255 133.80218957 121.34189565 136.83984375 115.31640625 C140.98361687 107.09619734 144.93644253 98.79085625 148.86755371 90.46725464 C155.83832228 75.7098264 162.87076291 60.98412654 170.01586914 46.31030273 C174.09966004 37.91049263 178.0488003 29.4668565 182 21 C121.94 21 61.88 21 0 21 C0 14.07 0 7.14 0 0 Z " fill="#BCA451" transform="translate(662,305)"/>
<path d="M0 0 C2.5903321 1.3320024 4.98163622 2.70390831 7.4375 4.25 C8.95373727 5.17385001 10.47207498 6.09425908 11.9921875 7.01171875 C13.20406738 7.74334229 13.20406738 7.74334229 14.44042969 8.48974609 C18.91691135 11.13105815 23.49006941 13.59226357 28.0625 16.0625 C29.94287519 17.08172348 31.82308593 18.10125041 33.703125 19.12109375 C34.60353516 19.6094873 35.50394531 20.09788086 36.43164062 20.60107422 C46.33660252 25.99607723 56.1177725 31.59726536 65.80395508 37.37548828 C71.45630251 40.73277625 77.21538097 43.87723439 83 47 C83.94641357 47.51151611 84.89282715 48.02303223 85.86791992 48.55004883 C87.80684663 49.59745857 89.74597631 50.64449266 91.68530273 51.69116211 C101.4188053 56.94774425 111.10912378 62.26676901 120.73339844 67.72021484 C125.50111676 70.41219884 130.28367341 73.07780409 135.0625 75.75 C146.10113637 81.92737955 157.11833903 88.14198366 168.12646484 94.37353516 C173.06250462 97.16740916 177.99993182 99.95882823 182.9375 102.75 C183.88778076 103.2872168 184.83806152 103.82443359 185.81713867 104.37792969 C193.87165421 108.93008611 201.93347438 113.46916485 210 118 C208.6796353 121.9610941 207.13539314 122.36517686 203.54296875 124.4140625 C202.9767128 124.74098587 202.41045685 125.06790924 201.82704163 125.40473938 C200.59715552 126.11376069 199.36494813 126.81876704 198.1307373 127.52023315 C194.81489248 129.40535311 191.5160612 131.31988847 188.21484375 133.23046875 C187.53370514 133.62361771 186.85256653 134.01676666 186.15078735 134.42182922 C179.11948684 138.48863887 172.1806866 142.70224588 165.25 146.9375 C155.9406666 152.6163414 146.59723885 158.22666681 137.18017578 163.72509766 C123.02804097 172.00084771 108.95816075 180.40108368 95 189 C91.92142612 185.29739087 89.28885526 181.46537791 86.75 177.375 C86.20472656 176.51648438 86.20472656 176.51648438 85.6484375 175.640625 C83.92960504 172.86206124 83 171.33058458 83 168 C85.42407227 166.24169922 85.42407227 166.24169922 88.81640625 164.3046875 C89.42451645 163.95294464 90.03262665 163.60120178 90.65916443 163.23880005 C92.62105949 162.10691529 94.59132948 160.99063864 96.5625 159.875 C97.83328912 159.14689144 99.10347845 158.41773495 100.37304688 157.6875 C102.29620492 156.58142654 104.21969449 155.47600215 106.14532471 154.37423706 C111.86400927 151.09776846 117.51490847 147.71496795 123.15893555 144.31201172 C127.19197841 141.88065505 131.23916649 139.473466 135.2890625 137.0703125 C136.31920723 136.45891922 136.31920723 136.45891922 137.37016296 135.83517456 C139.45494114 134.59816711 141.53995322 133.36155465 143.625 132.125 C145.75538709 130.86118645 147.88571078 129.59726619 150.01596069 128.33322144 C151.32367012 127.55729109 152.63146455 126.78150398 153.93936157 126.00588989 C157.2984884 124.0131391 160.65281347 122.01274423 164 120 C151.8471378 112.59581403 139.54599923 105.38280834 127.01953125 98.62890625 C114.45172501 91.84911944 101.98983414 84.88289576 89.56933594 77.83764648 C83.40433447 74.34542013 77.21561537 70.90124342 71 67.5 C62.768484 62.99501383 54.59296771 58.39602107 46.43017578 53.76782227 C39.88711446 50.0598671 33.32990065 46.37969026 26.73510742 42.7644043 C22.57050074 40.47060048 18.46866114 38.09593209 14.39453125 35.64453125 C13.44529785 35.08064697 12.49606445 34.5167627 11.51806641 33.93579102 C9.66621567 32.83289043 7.82296082 31.71539401 5.98974609 30.58178711 C4.73218506 29.83747437 4.73218506 29.83747437 3.44921875 29.078125 C2.71018311 28.62856445 1.97114746 28.17900391 1.2097168 27.71582031 C-1.82949778 26.73129074 -3.21284034 27.57962056 -6 29 C-16.32004202 34.4122887 -26.15614305 40.75174201 -36.06176758 46.8737793 C-42.64048397 50.93884038 -49.23585484 54.97182221 -55.875 58.9375 C-66.7729099 65.44923002 -77.62020435 72.04362703 -88.46766663 78.63887024 C-92.85208644 81.30401303 -97.23991699 83.96348426 -101.62890625 86.62109375 C-103.50379994 87.75703781 -105.37862398 88.89309673 -107.25341797 90.02920532 C-108.43692092 90.7460751 -109.62066774 91.46254248 -110.8046875 92.17855835 C-118.2655594 96.69077957 -125.66534625 101.28519317 -133 106 C-129.80641271 108.564723 -126.47528078 110.40302554 -122.828125 112.2578125 C-121.93582436 112.71442009 -121.93582436 112.71442009 -121.02549744 113.18025208 C-119.75727271 113.82921078 -118.48828442 114.47667914 -117.21859741 115.12277222 C-108.46121048 119.58122392 -99.70864303 124.03798154 -91.1875 128.9375 C-85.70473401 132.08438747 -80.14404028 134.98641607 -74.47363281 137.7800293 C-65.57834342 142.17114518 -56.81345941 146.81354143 -48.02734375 151.41796875 C-44.9907743 153.00482117 -41.94935066 154.58196301 -38.90625 156.15625 C-29.57965784 160.98698531 -20.34952802 165.89023254 -11.265625 171.1640625 C-7.20308196 173.44802808 -3.05128791 175.52096724 1.12670898 177.58129883 C7.95728453 180.956757 14.73363788 184.43534281 21.5 187.9375 C22.38389404 188.39485535 22.38389404 188.39485535 23.28564453 188.8614502 C30.80018589 192.75552724 38.23430895 196.75235283 45.57836914 200.95776367 C50.42792825 203.72004068 55.37072464 206.23939496 60.37646484 208.70507812 C74.98005889 215.91413725 89.35879225 223.58827726 103.75927734 231.19311523 C108.17244557 233.52111985 112.59518942 235.82941703 117.02734375 238.12109375 C127.77261633 243.67882278 138.45783434 249.30919595 149.03271484 255.18505859 C154.62389485 258.27865565 160.27818074 261.19833371 166.00976562 264.02172852 C171.87067902 266.9134728 177.65161841 269.94583335 183.4284668 273.00146484 C189.89718608 276.42290394 196.38359984 279.80931159 202.875 283.1875 C210.95229511 287.39406217 219.0037319 291.64118975 227 296 C225.34229667 300.49324849 223.15017838 304.61186146 220.875 308.8125 C220.50246094 309.50537109 220.12992188 310.19824219 219.74609375 310.91210938 C218.83309623 312.60934836 217.91687284 314.30485138 217 316 C211.80459995 315.49644584 208.02481657 313.57238459 203.625 310.9375 C198.30359338 307.84830309 192.9618692 304.8977959 187.4375 302.1875 C172.96547229 295.0544449 158.70263213 287.51838224 144.5625 279.75 C137.92217051 276.1035327 131.25707871 272.55883297 124.46044922 269.21337891 C113.21249534 263.6639383 102.1204531 257.79944957 91 252 C90.12408203 251.54334961 89.24816406 251.08669922 88.34570312 250.61621094 C79.82681203 246.16900207 71.34749282 241.65325725 62.89501953 237.08105469 C52.33416549 231.36933103 41.73411378 225.75119136 31.0625 220.25 C30.44750641 219.93291077 29.83251282 219.61582153 29.19888306 219.28912354 C26.21546503 217.75112885 23.23176646 216.21367911 20.24804688 214.67626953 C9.68443503 209.22454382 -0.8191049 203.69009627 -11.1875 197.875 C-17.25763477 194.47198625 -23.38254478 191.24788749 -29.62329102 188.17041016 C-43.40071104 181.36471686 -56.97072759 174.14868023 -70.4375 166.75 C-77.16941465 163.05219604 -83.93031769 159.46529406 -90.82080078 156.07275391 C-104.52421213 149.31258854 -117.9933626 142.07033839 -131.50390625 134.93457031 C-136.22083453 132.44792877 -140.95140763 129.98927891 -145.69140625 127.546875 C-179.41677764 110.16644472 -179.41677764 110.16644472 -181 107 C-165.2019301 97.37724477 -149.39376285 87.77120769 -133.58056641 78.17333984 C-128.30170482 74.96925917 -123.02335107 71.76434205 -117.7449646 68.55947876 C-114.82999774 66.78961737 -111.91499714 65.01981153 -109 63.25 C-107.83333317 62.54166693 -106.66666651 61.8333336 -105.5 61.125 C-93.83333333 54.04166667 -82.16666667 46.95833333 -70.5 39.875 C-69.92257553 39.52442032 -69.34515106 39.17384064 -68.75022888 38.81263733 C-67.58280121 38.10384305 -66.4153716 37.39505195 -65.24794006 36.68626404 C-62.34290095 34.92250927 -59.4378948 33.15870028 -56.53295898 31.39477539 C-51.14475979 28.12304898 -45.75625841 24.85182384 -40.36660767 21.58248901 C-37.86577956 20.06545455 -35.36513464 18.54811828 -32.86450195 17.03076172 C-31.13445404 15.981154 -29.40414669 14.93197396 -27.67382812 13.8828125 C-26.59681641 13.22925781 -25.51980469 12.57570313 -24.41015625 11.90234375 C-23.35973145 11.26796387 -22.30930664 10.63358398 -21.22705078 9.97998047 C-18.95531503 8.58614048 -16.70882266 7.1746048 -14.47216797 5.72705078 C-13.89027206 5.35528214 -13.30837616 4.98351349 -12.70884705 4.60047913 C-11.09177203 3.5651633 -9.48203989 2.5184043 -7.87280273 1.47094727 C-4.85065291 -0.07646946 -3.32899312 -0.46857384 0 0 Z " fill="#89A19F" transform="translate(437,50)"/>
<path d="M0 0 C4.06925641 0.61408694 7.19279916 1.94273277 10.83203125 3.84375 C12.51268677 4.71749268 12.51268677 4.71749268 14.22729492 5.60888672 C15.4225092 6.23898111 16.61757467 6.86935783 17.8125 7.5 C19.04062656 8.142367 20.26889887 8.78445541 21.49731445 9.42626953 C28.59030077 13.14366845 35.61420853 16.96776618 42.5625 20.94946289 C47.55810221 23.79735473 52.65889885 26.38337338 57.81591797 28.92480469 C63.6509236 31.80507475 69.40714535 34.82126832 75.15722656 37.86694336 C81.10116143 41.01112157 87.06965413 44.10517827 93.04638672 47.18652344 C102.73476671 52.18341877 112.36099309 57.24797058 121.85888672 62.59814453 C127.04044867 65.5037045 132.29803758 68.20354278 137.62524414 70.83056641 C150.95916225 77.41710278 164.10527351 84.37705554 177.125 91.5625 C187.20909149 97.119444 197.43884858 102.38036828 207.6875 107.625 C208.90918381 108.25023056 208.90918381 108.25023056 210.1555481 108.88809204 C213.34018212 110.51767491 216.52489985 112.14709402 219.70976257 113.77622986 C230.28948288 119.19099846 240.79589167 124.73570207 251.26171875 130.3671875 C253.59100436 131.62005581 255.92038677 132.87274125 258.25 134.125 C258.83644287 134.44032684 259.42288574 134.75565369 260.02709961 135.08053589 C269.65665211 140.25390478 279.34226196 145.31180546 289.0625 150.3125 C289.72178497 150.65173492 290.38106995 150.99096985 291.06033325 151.34048462 C293.63213551 152.66364589 296.20402977 153.98662812 298.77604675 155.30937195 C310.33590165 161.25695638 321.81595842 167.32481302 333.1875 173.625 C339.58077052 177.16535292 346.01211237 180.57041111 352.56665039 183.80126953 C367.94872954 191.39787615 383.23440091 199.25686351 398 208 C394.36157529 212.17781382 389.91463006 214.6191857 385.1875 217.375 C383.36802397 218.451036 381.54903176 219.52789041 379.73046875 220.60546875 C378.31193604 221.44343994 378.31193604 221.44343994 376.86474609 222.29833984 C372.22025369 225.05716992 367.61051404 227.87237626 363 230.6875 C361.05608508 231.8725525 359.11207217 233.05744426 357.16796875 234.2421875 C355.6682251 235.15629395 355.6682251 235.15629395 354.13818359 236.08886719 C348.53303629 239.50236439 342.92270068 242.90731755 337.3125 246.3125 C336.12695169 247.03214283 334.94140483 247.75178802 333.75585938 248.47143555 C331.36412613 249.92322829 328.97235544 251.37495933 326.58056641 252.82666016 C321.30170482 256.03074083 316.02335107 259.23565795 310.7449646 262.44052124 C307.82999774 264.21038263 304.91499714 265.98018847 302 267.75 C300.83333317 268.45833307 299.66666651 269.1666664 298.5 269.875 C296.16666667 271.29166667 293.83333333 272.70833333 291.5 274.125 C290.92255035 274.47559479 290.34510071 274.82618958 289.75015259 275.18740845 C288.58297858 275.89604908 287.41580329 276.60468759 286.24862671 277.31332397 C283.33971174 279.07943825 280.43081889 280.84558892 277.52197266 282.61181641 C272.17960965 285.85560472 266.8371263 289.09919343 261.49368286 292.34120178 C260.26657883 293.08583566 259.03958848 293.83065692 257.81271362 294.57566833 C254.82581331 296.38927011 251.83740325 298.20026116 248.84521484 300.00512695 C243.66987776 303.13109058 238.52140634 306.28431642 233.453125 309.58203125 C232.62635254 310.1126416 231.79958008 310.64325195 230.94775391 311.18994141 C229.45435991 312.15278341 227.97117564 313.13175178 226.50146484 314.13037109 C223.43141623 316.09584387 221.68041005 317.10584156 218.01171875 316.53515625 C214.35874041 314.67313227 210.74888978 312.78237396 207.1875 310.75 C206.03157349 310.09898315 206.03157349 310.09898315 204.85229492 309.43481445 C203.15142473 308.47685308 201.45168903 307.51687537 199.75292969 306.55517578 C195.83288143 304.3406753 191.90098853 302.14753724 187.97021484 299.95214844 C178.4900493 294.65427952 169.02245619 289.33386278 159.5625 284 C158.64637939 283.4846167 157.73025879 282.9692334 156.78637695 282.43823242 C152.49660627 280.01570414 148.23994535 277.55459991 144.02734375 275 C138.77498812 271.82895165 133.40280198 268.90511636 128 266 C126.30690465 265.08274525 124.61418959 264.16478819 122.921875 263.24609375 C122.08390381 262.79137695 121.24593262 262.33666016 120.38256836 261.86816406 C110.90789987 256.71917423 101.49250493 251.47649873 92.11816406 246.1472168 C83.49197157 241.25309295 74.80092285 236.48117142 66.10595703 231.71087646 C59.1416379 227.88645141 52.21345457 224.02656755 45.4375 219.875 C40.57617263 216.90015788 35.6667123 214.29547661 30.5390625 211.81640625 C22.19000766 207.53129532 14.11896085 202.70297311 6 198 C9.09716392 194.56123712 12.4609965 192.45826963 16.5 190.3125 C24.20205541 186.09996952 31.70015416 181.58095177 39.1875 177 C48.90022827 171.0640237 58.66484381 165.2307982 68.5 159.5 C80.72504398 152.3741822 92.83939285 145.07798579 104.91796875 137.70703125 C106.45783447 136.77238037 106.45783447 136.77238037 108.02880859 135.81884766 C110.00068911 134.6117392 111.96219935 133.38751535 113.91259766 132.14599609 C114.80382324 131.58605957 115.69504883 131.02612305 116.61328125 130.44921875 C117.77984253 129.70224731 117.77984253 129.70224731 118.9699707 128.94018555 C121 128 121 128 124 129 C126.03815432 131.60118468 127.59695117 134.51718677 129.25 137.375 C129.72179687 138.15617188 130.19359375 138.93734375 130.6796875 139.7421875 C131.34097656 140.87140625 131.34097656 140.87140625 132.015625 142.0234375 C132.62325684 143.05863525 132.62325684 143.05863525 133.24316406 144.11474609 C134 146 134 146 133 149 C131.19116211 150.32421875 131.19116211 150.32421875 128.77734375 151.6875 C127.40497559 152.47374756 127.40497559 152.47374756 126.00488281 153.27587891 C124.99264648 153.84483887 123.98041016 154.41379883 122.9375 155 C120.74265371 156.25635335 118.54868976 157.51424903 116.35546875 158.7734375 C115.77125153 159.1075766 115.1870343 159.4417157 114.58511353 159.78598022 C107.25759097 163.98239617 100.00563851 168.30591476 92.75 172.625 C91.37721492 173.44143593 90.00441228 174.25784235 88.6315918 175.07421875 C85.35499307 177.02327397 82.07941105 178.97403038 78.80419922 180.92541504 C77.1003498 181.94023144 75.39589679 182.95403423 73.69140625 183.96777344 C70.87608604 185.64265345 68.06261487 187.32058205 65.25 189 C64.45303711 189.4738916 63.65607422 189.9477832 62.83496094 190.43603516 C62.11083008 190.86964355 61.38669922 191.30325195 60.640625 191.75 C59.72071777 192.29914063 59.72071777 192.29914063 58.78222656 192.859375 C56.77526522 194.14383026 54.89016838 195.5503502 53 197 C53.67764404 197.36125977 54.35528809 197.72251953 55.0534668 198.09472656 C67.49083017 204.7344184 79.883388 211.42466767 92.10131836 218.46240234 C101.95683157 224.13925272 111.88986611 229.67601854 121.81933594 235.22216797 C124.94605873 236.96984953 128.07102633 238.72062303 131.1953125 240.47265625 C143.07836901 247.13596459 154.97726891 253.76992415 166.8894043 260.38110352 C173.59165675 264.102318 180.2887568 267.83250151 186.97753906 271.57788086 C189.08920258 272.76011049 191.20180799 273.94065959 193.31542969 275.11938477 C197.88517256 277.67169756 202.43794636 280.2423608 206.94140625 282.91015625 C207.67915283 283.34215332 208.41689941 283.77415039 209.17700195 284.21923828 C210.50705889 285.00088757 211.8305335 285.79391152 213.14526367 286.60107422 C215.69393362 288.09056129 217.53660094 289.00574759 220.51953125 288.96875 C223.75667606 287.70447927 226.55050901 285.96541164 229.4375 284.0625 C236.68708411 279.40889771 244.04151984 274.94540765 251.43807983 270.53103638 C261.87827729 264.29988228 272.28078737 258.01439075 282.625 251.625 C290.78954984 246.58222586 298.97693282 241.58448693 307.21606445 236.66455078 C312.22769048 233.66964404 317.22611099 230.65392792 322.21484375 227.62109375 C322.84211365 227.23977798 323.46938354 226.85846222 324.11566162 226.46559143 C327.2269388 224.5736773 330.33728907 222.68025306 333.44677734 220.78540039 C334.59597114 220.08600576 335.74522073 219.38670279 336.89453125 218.6875 C337.96010254 218.03910156 339.02567383 217.39070312 340.12353516 216.72265625 C342.48177619 215.31035369 344.85495121 213.95169006 347.26171875 212.625 C350.08316033 211.2844724 350.08316033 211.2844724 351 209 C350.12448486 208.72937744 349.24896973 208.45875488 348.34692383 208.17993164 C345.16441711 207.05796396 342.40507334 205.73846744 339.44921875 204.12109375 C338.37494629 203.5381958 337.30067383 202.95529785 336.19384766 202.35473633 C334.45820557 201.40570435 334.45820557 201.40570435 332.6875 200.4375 C330.17019004 199.07139219 327.65010621 197.71047627 325.12890625 196.3515625 C324.4722699 195.99751846 323.81563354 195.64347443 323.13909912 195.27870178 C315.52173977 191.18511 307.82328002 187.25106464 300.125 183.3125 C291.02063001 178.65070766 281.95255525 173.94942896 273 169 C260.37583561 162.02095553 247.51469092 155.50295887 234.6807251 148.92127991 C228.65703646 145.82960501 222.65982328 142.68952536 216.67480469 139.52368164 C211.77168999 136.93033033 206.85611137 134.36220391 201.93408203 131.80493164 C192.41650427 126.85841295 182.94457478 121.83452146 173.5 116.75 C161.40378914 110.24208725 149.21921338 103.91691889 137.00369263 97.63638306 C136.05633743 97.1492836 136.05633743 97.1492836 135.08984375 96.65234375 C134.46963348 96.33349213 133.84942322 96.0146405 133.2104187 95.68612671 C127.38330487 92.68782083 121.5811573 89.64374444 115.78808594 86.58032227 C111.70374925 84.42108407 107.61270241 82.27592478 103.51171875 80.1484375 C94.20346068 75.31790831 84.93231793 70.44128599 75.75 65.375 C66.09779761 60.05587393 56.31126587 55.01688533 46.5 50 C34.02719505 43.62189497 21.66589984 37.08398613 9.40039062 30.31396484 C2.97606567 26.79731341 -3.51616933 23.40530099 -10 20 C-6.66666667 13.33333333 -3.33333333 6.66666667 0 0 Z " fill="#4E537F" transform="translate(265,173)"/>
<path d="M0 0 C47.82585644 0 47.82585644 0 60.77734375 12.58203125 C64.06398433 16.15748032 66.70271542 19.72130746 69 24 C69.4125 24.72703125 69.825 25.4540625 70.25 26.203125 C75.59568955 37.71120667 74.83156632 54.08060546 70.875 65.9375 C66.36716787 76.42639432 58.7449076 85.87014744 48 90.375 C32.06622285 96.29484082 17.78303406 94 0 94 C0 62.98 0 31.96 0 0 Z " fill="#131411" transform="translate(188,574)"/>
<path d="M0 0 C45.75216138 0 45.75216138 0 58 10 C58.59941406 10.47824219 59.19882812 10.95648437 59.81640625 11.44921875 C67.219234 18.05260506 72.27258213 28.55208705 73.23510742 38.40722656 C73.84165579 50.14616985 73.76903985 60.49973699 68 71 C67.55398438 71.825 67.10796875 72.65 66.6484375 73.5 C60.31785708 83.96844583 51.67561868 89.69048765 40 93 C26.79654927 94.88620725 13.33749935 94 0 94 C0 62.98 0 31.96 0 0 Z " fill="#131311" transform="translate(455,574)"/>
<path d="M0 0 C3.96 0 7.92 0 12 0 C12.33 11.22 12.66 22.44 13 34 C14.65 32.68 16.3 31.36 18 30 C24.5112679 25.37357281 31.20321476 25.06204087 39 26 C46.59568365 28.00546103 51.34139143 33.67093826 55.32421875 40.15625 C60.43101547 51.19409836 59.87419409 67.58588537 56.25 79.0625 C52.8637937 87.19880124 47.82239288 94.02061337 39.83203125 98.109375 C29.8648805 101.84926165 21.55480743 100.06896742 12 96 C11.505 96.99 11.505 96.99 11 98 C7.37 98 3.74 98 0 98 C0 65.66 0 33.32 0 0 Z " fill="#10100E" transform="translate(607,570)"/>
<path d="M0 0 C40.41645244 0 40.41645244 0 50 8 C56.69469927 15.33441498 58.47793001 21.53743194 58.3125 31.421875 C57.60110884 39.56730383 54.19887787 46.61206181 48 52 C39.49859651 57.93047813 31.1441725 59.32596274 21 59.125 C18.03 59.08375 15.06 59.0425 12 59 C12 70.55 12 82.1 12 94 C8.04 94 4.08 94 0 94 C0 62.98 0 31.96 0 0 Z " fill="#0E0E0C" transform="translate(275,574)"/>
<path d="M0 0 C28.48497854 0 28.48497854 0 38.9375 9.8203125 C46.10109353 17.43163063 47.50067617 24.72315848 47.375 34.875 C47.38660156 35.80441406 47.39820313 36.73382812 47.41015625 37.69140625 C47.36746135 47.89548686 45.098891 56.46373657 38 64 C27.87179186 73.97238955 13.17677032 72 0 72 C0 48.24 0 24.48 0 0 Z " fill="#FEFEFD" transform="translate(201,585)"/>
<path d="M0 0 C28.52815013 0 28.52815013 0 38.54296875 9.45703125 C45.89886581 17.2125079 47.35196253 25.10264775 47.4375 35.5 C47.44765137 36.3780127 47.45780273 37.25602539 47.46826172 38.16064453 C47.32884312 48.69951234 44.65302083 57.52426923 37 65 C25.46862858 73.35311357 14.63343725 72 0 72 C0 48.24 0 24.48 0 0 Z " fill="#FDFDFD" transform="translate(468,585)"/>
<path d="M0 0 C7.0217977 7.34839294 7.24784992 14.11296476 7.078125 23.84375 C7.07246521 25.07540894 7.06680542 26.30706787 7.06097412 27.5760498 C7.03868231 31.4886044 6.98849621 35.40022474 6.9375 39.3125 C6.9151594 41.97394493 6.89917683 44.63538109 6.8828125 47.296875 C6.8388406 53.80244029 6.76986019 60.30731204 6.6875 66.8125 C2.7275 66.8125 -1.2325 66.8125 -5.3125 66.8125 C-5.6425 64.8325 -5.9725 62.8525 -6.3125 60.8125 C-6.90417969 61.22242188 -7.49585938 61.63234375 -8.10546875 62.0546875 C-8.89566406 62.59351563 -9.68585937 63.13234375 -10.5 63.6875 C-11.27730469 64.22117187 -12.05460938 64.75484375 -12.85546875 65.3046875 C-19.22105752 69.21107425 -24.96839291 69.56696614 -32.3125 68.8125 C-38.49845462 67.09360745 -42.84093784 63.13040255 -46.3125 57.8125 C-49.29887679 51.77817164 -49.03389651 45.38687641 -48.3125 38.8125 C-46.35047384 33.38956074 -42.34196381 28.66320823 -37.3125 25.8125 C-26.58793735 21.39123183 -16.79648965 20.65707758 -5.3125 20.8125 C-5.45418137 19.37458484 -5.60101043 17.9371763 -5.75 16.5 C-5.83121094 15.69949219 -5.91242187 14.89898438 -5.99609375 14.07421875 C-6.26515693 11.65162821 -6.26515693 11.65162821 -7.3125 8.8125 C-11.6497364 6.30411763 -16.13322619 6.46769282 -21 6.5 C-21.79929932 6.50128906 -22.59859863 6.50257813 -23.42211914 6.50390625 C-28.76336022 6.59062351 -33.43582128 7.24043192 -38.46484375 9.15625 C-40.3125 9.8125 -40.3125 9.8125 -43.3125 9.8125 C-43.3125 5.8525 -43.3125 1.8925 -43.3125 -2.1875 C-29.19320464 -5.90310404 -12.79647583 -8.45050291 0 0 Z " fill="#121210" transform="translate(584.3125,601.1875)"/>
<path d="M0 0 C1.29744141 -0.01836914 1.29744141 -0.01836914 2.62109375 -0.03710938 C11.54288054 -0.05717336 19.13572092 1.89178837 27.375 5.1875 C27.375 10.1375 27.375 15.0875 27.375 20.1875 C25.22445873 19.11222937 23.07556477 18.03346361 20.9375 16.93359375 C20.091875 16.50175781 19.24625 16.06992187 18.375 15.625 C17.1065625 14.97337891 17.1065625 14.97337891 15.8125 14.30859375 C10.96332879 12.07828584 6.28145171 11.94305994 1 11.875 C0.2575 11.84599609 -0.485 11.81699219 -1.25 11.78710938 C-6.52156136 11.72657024 -9.46321422 12.68251522 -13.625 16.1875 C-16.42427794 19.12260788 -17.03726807 21.09383704 -17 25.125 C-16.83659771 30.17561618 -15.79219985 33.15000787 -12.05859375 36.66015625 C-8.56679816 38.85163631 -4.90735336 39.67325656 -0.9375 40.6875 C0.68787918 41.12228286 2.31288492 41.55846439 3.9375 41.99609375 C4.70964844 42.20218262 5.48179687 42.40827148 6.27734375 42.62060547 C16.89608047 45.4903339 24.4359324 48.48170832 30.375 58.1875 C32.94578765 65.89986294 32.084211 74.65241587 28.69921875 81.96875 C24.08781381 89.6952338 17.40979361 93.54287992 9.0625 96.26953125 C-5.16199374 99.81058637 -18.55971211 95.7869091 -31.625 90.1875 C-31.625 84.9075 -31.625 79.6275 -31.625 74.1875 C-28.56398001 75.71800999 -25.81501099 77.30396648 -22.9375 79.125 C-13.63858085 84.66103775 -5.5281505 86.33046866 5.375 85.1875 C9.9873721 83.92958034 12.63571961 81.98222641 15.875 78.5 C18.35617709 73.02073394 18.16884303 68.44368545 16.1875 62.8125 C11.46877443 55.97848366 2.68705978 55.36618864 -4.90234375 53.61328125 C-14.15143449 51.3523924 -22.19946241 48.32580638 -27.625 40.1875 C-31.11137783 33.90637394 -31.4885918 27.23858471 -30.625 20.1875 C-29.66911044 17.21198738 -28.35912145 14.77655545 -26.625 12.1875 C-26.08875 11.32125 -25.5525 10.455 -25 9.5625 C-17.63691816 2.19941816 -10.03861006 0.00728491 0 0 Z " fill="#10110F" transform="translate(371.625,572.8125)"/>
<path d="M0 0 C3.96 0 7.92 0 12 0 C12 23.43 12 46.86 12 71 C8.04 71 4.08 71 0 71 C-0.495 67.535 -0.495 67.535 -1 64 C-1.58007812 64.48210937 -2.16015625 64.96421875 -2.7578125 65.4609375 C-9.86993146 71.21166075 -15.02416578 73.51306161 -24.25 73.3125 C-30.04218426 72.65429724 -33.70260177 70.26856716 -37.8125 66.25 C-43.09948896 58.39504497 -43.4183677 51.63789667 -43.29296875 42.40625 C-43.28872391 41.21898315 -43.28447906 40.03171631 -43.28010559 38.80847168 C-43.26339339 35.0387446 -43.22575381 31.26956388 -43.1875 27.5 C-43.17244358 24.93490359 -43.15875685 22.36979874 -43.14648438 19.8046875 C-43.1135141 13.53624974 -43.06178237 7.26821732 -43 1 C-39.04 1 -35.08 1 -31 1 C-30.98541748 2.51352051 -30.97083496 4.02704102 -30.95581055 5.58642578 C-30.89776193 11.21117572 -30.82052854 16.8355281 -30.73754883 22.45996094 C-30.70433053 24.8925124 -30.67628901 27.32514037 -30.65356445 29.7578125 C-30.61996242 33.25814358 -30.56764166 36.75777555 -30.51171875 40.2578125 C-30.50532883 41.34240753 -30.4989389 42.42700256 -30.49235535 43.54446411 C-30.38328653 49.16815331 -30.01907579 53.0825165 -27 58 C-27 58.66 -27 59.32 -27 60 C-17.90345715 60.53932072 -10.47968852 60.89092413 -3 55 C-0.44363914 52.44363914 -0.73164393 51.45895622 -0.68115234 47.90771484 C-0.66128265 46.84676605 -0.64141296 45.78581726 -0.62094116 44.69271851 C-0.60938995 43.54373077 -0.59783875 42.39474304 -0.5859375 41.2109375 C-0.56657135 40.03737701 -0.5472052 38.86381653 -0.5272522 37.6546936 C-0.46732336 33.89487039 -0.42101754 30.13501677 -0.375 26.375 C-0.3368325 23.83071558 -0.29778151 21.28644425 -0.2578125 18.7421875 C-0.16161079 12.49489759 -0.07762888 6.24754719 0 0 Z " fill="#131411" transform="translate(720,597)"/>
<path d="M0 0 C4.94180557 3.0199923 7.40189799 6.74259241 8.85522461 12.25854492 C10.69833982 22.13978536 11.44020286 35.94653247 5.77734375 44.58984375 C5.27332031 45.17894531 4.76929688 45.76804687 4.25 46.375 C3.77691406 46.93316406 3.30382812 47.49132812 2.81640625 48.06640625 C-1.59064105 52.09978869 -6.54333086 51.90062451 -12.2734375 51.84375 C-15.26359226 51.44058307 -17.63801189 50.81728802 -20.46728516 49.84570312 C-21.27122711 49.57149536 -22.07516907 49.2972876 -22.9034729 49.01477051 C-23.51282684 48.80364624 -24.12218079 48.59252197 -24.75 48.375 C-24.94801127 42.48530698 -25.09304089 36.59755596 -25.18945312 30.70532227 C-25.22964499 28.70204928 -25.28421105 26.6990104 -25.35351562 24.6965332 C-25.45076706 21.81402922 -25.49596533 18.93462817 -25.53125 16.05078125 C-25.57254028 15.15788895 -25.61383057 14.26499664 -25.65637207 13.345047 C-25.6582129 10.78449427 -25.57616858 8.80136994 -24.75 6.375 C-22.34420302 4.0852184 -19.76114544 2.72925146 -16.75 1.375 C-15.5434375 0.7253125 -15.5434375 0.7253125 -14.3125 0.0625 C-9.54076299 -1.21772212 -4.80096807 -1.09112911 0 0 Z " fill="#FCFCFC" transform="translate(643.75,607.625)"/>
<path d="M0 0 C23.712 0 23.712 0 28.60546875 4.46484375 C33.46868584 10.03642859 33.33655464 14.38922379 33.28515625 21.5703125 C32.90768707 26.11028432 32.09286435 27.73530985 29 31 C28.401875 31.7425 27.80375 32.485 27.1875 33.25 C19.66966556 39.26426755 8.68668533 37 0 37 C0 24.79 0 12.58 0 0 Z " fill="#FDFDFC" transform="translate(287,585)"/>
<path d="M0 0 C71.94 0 143.88 0 218 0 C216.54996379 4.35010863 215.09990776 7.99108518 213 12 C212.01 10.515 212.01 10.515 211 9 C211.66 7.68 212.32 6.36 213 5 C213.66 5 214.32 5 215 5 C215 4.34 215 3.68 215 3 C110.06 2.505 110.06 2.505 3 2 C2.67 7.61 2.34 13.22 2 19 C4.21080765 18.99555878 6.4216153 18.99111755 8.69941711 18.98654175 C29.49239158 18.94572249 50.28536078 18.91593174 71.07836628 18.89637566 C81.76930127 18.88605389 92.4602069 18.8719764 103.15112305 18.84912109 C112.46704938 18.82921473 121.78295445 18.81629011 131.09890145 18.81182301 C136.03367156 18.80921095 140.96838083 18.80305287 145.90313148 18.78853989 C150.54465088 18.77499945 155.18608419 18.77077017 159.82762146 18.77378464 C161.53406428 18.77323288 163.24050987 18.76923442 164.94693565 18.76158905 C167.27127467 18.75168308 169.59528584 18.75401506 171.91963196 18.75949097 C173.22212544 18.75764738 174.52461893 18.75580379 175.86658192 18.75390434 C179 19 179 19 182 21 C121.94 21 61.88 21 0 21 C0 14.07 0 7.14 0 0 Z " fill="#BFB171" transform="translate(662,305)"/>
<path d="M0 0 C1.21504892 17.0444362 1.21504892 17.0444362 -1.5703125 21.52734375 C-3.66648639 23.09349648 -5.55355809 24.08648344 -8 25 C-9.4540625 25.680625 -9.4540625 25.680625 -10.9375 26.375 C-16.14066639 27.43687069 -20.89909059 27.86776693 -25.875 25.8125 C-28.98807971 23.15722613 -30.66391508 20.99804331 -31.35546875 16.88671875 C-31.62331545 12.5794543 -31.24338889 10.41071875 -29 6.625 C-20.81754602 -0.53464724 -10.35864737 -0.16858558 0 0 Z " fill="#FCFCFB" transform="translate(579,632)"/>
<path d="M0 0 C1.31879402 -0.002062 1.31879402 -0.002062 2.66423035 -0.00416565 C4.10676682 0.00122726 4.10676682 0.00122726 5.57844543 0.00672913 C6.59325485 0.0065831 7.60806427 0.00643707 8.65362549 0.00628662 C12.01375961 0.00698426 15.37383855 0.01476974 18.73396301 0.02259827 C21.06138071 0.02446297 23.38879881 0.02588663 25.71621704 0.02688599 C31.84663473 0.030707 37.97702879 0.04053378 44.10743713 0.05158997 C50.36119772 0.06181299 56.61496211 0.06638552 62.86872864 0.07142639 C75.14282757 0.08215639 87.41690895 0.09922786 99.69099426 0.12025452 C99.69099426 0.45025452 99.69099426 0.78025452 99.69099426 1.12025452 C65.70099426 1.12025452 31.71099426 1.12025452 -3.30900574 1.12025452 C-3.96900574 3.10025452 -4.62900574 5.08025452 -5.30900574 7.12025452 C-6.27904695 9.1349555 -7.27145456 11.13947499 -8.30900574 13.12025452 C-9.6986863 8.95121284 -8.01935932 7.03981481 -6.30900574 3.12025452 C-6.63900574 2.46025452 -6.96900574 1.80025452 -7.30900574 1.12025452 C-4.52327221 0.19167667 -2.8742146 -0.00346709 0 0 Z " fill="#B8A360" transform="translate(167.3090057373047,328.87974548339844)"/>
<path d="M0 0 C14.52 0 29.04 0 44 0 C44 0.33 44 0.66 44 1 C29.65629181 1.69241678 15.3608521 2.1524147 1 2 C0.67 2.99 0.34 3.98 0 5 C-0.66 5 -1.32 5 -2 5 C-1.34 3.35 -0.68 1.7 0 0 Z " fill="#BAA460" transform="translate(152,309)"/>
<path d="M0 0 C1.66610132 4.99830395 -0.99449363 9.31010467 -3 14 C-4.55873334 17.06903146 -6.22387388 20.05192181 -8 23 C-8.66 23 -9.32 23 -10 23 C-8.41980408 17.7936703 -6.22115005 13.01626689 -3.875 8.125 C-3.50246094 7.34125 -3.12992188 6.5575 -2.74609375 5.75 C-1.83381003 3.83186501 -0.91733016 1.91572671 0 0 Z " fill="#BBA864" transform="translate(833,349)"/>
<path d="M0 0 C0.99 0.66 1.98 1.32 3 2 C0.36 7.28 -2.28 12.56 -5 18 C-6.51493789 11.94024844 -4.26698437 7.29934201 -1.3125 1.9375 C-0.879375 1.298125 -0.44625 0.65875 0 0 Z " fill="#BCAA6C" transform="translate(829,404)"/>
<path d="M0 0 C1.13583456 3.71727674 0.66670026 5.47051709 -1 9 C-1.66 9 -2.32 9 -3 9 C-3 9.66 -3 10.32 -3 11 C-2.01 11.33 -1.02 11.66 0 12 C0 12.66 0 13.32 0 14 C-0.804375 14.12375 -1.60875 14.2475 -2.4375 14.375 C-3.283125 14.58125 -4.12875 14.7875 -5 15 C-5.33 15.66 -5.66 16.32 -6 17 C-7 14 -7 14 -5.56640625 10.64453125 C-4.90851193 9.3619696 -4.24010257 8.08475943 -3.5625 6.8125 C-3.22412109 6.15830078 -2.88574219 5.50410156 -2.53710938 4.83007812 C-1.70030902 3.21540701 -0.85130254 1.60707237 0 0 Z " fill="#BEA765" transform="translate(766,490)"/>
<path d="M0 0 C2 3 2 3 1.64453125 5.19140625 C1.36996094 5.97386719 1.09539062 6.75632812 0.8125 7.5625 C0.41998047 8.74005859 0.41998047 8.74005859 0.01953125 9.94140625 C-1 12 -1 12 -4 14 C-4.66 14.99 -5.32 15.98 -6 17 C-6.33 16.34 -6.66 15.68 -7 15 C-5.92591043 12.39525962 -4.79954367 9.90033962 -3.5625 7.375 C-3.22412109 6.66859375 -2.88574219 5.9621875 -2.53710938 5.234375 C-1.69845121 3.48618616 -0.85012153 1.74264314 0 0 Z " fill="#BEA968" transform="translate(77,464)"/>
<path d="M0 0 C1.30170719 4.79942421 0.46088661 7.30226731 -1.875 11.625 C-4 15 -4 15 -7 17 C-5.24009216 11.08030998 -2.60305395 5.58365008 0 0 Z " fill="#BFAB69" transform="translate(789,441)"/>
<path d="M0 0 C0.33 0 0.66 0 1 0 C0.55613427 5.54832168 -0.88460403 8.46851495 -4 13 C-4.8498695 15.31953332 -5.42193234 17.59138476 -6 20 C-7.09716797 18.24316406 -7.09716797 18.24316406 -8 16 C-7.49267578 14.07714844 -7.49267578 14.07714844 -6.4453125 12.109375 C-6.07792969 11.40039062 -5.71054688 10.69140625 -5.33203125 9.9609375 C-4.93371094 9.23132813 -4.53539063 8.50171875 -4.125 7.75 C-3.73441406 7.00492187 -3.34382813 6.25984375 -2.94140625 5.4921875 C-1.97513907 3.65392311 -0.98939434 1.82592089 0 0 Z " fill="#C1AD6F" transform="translate(104,408)"/>
<path d="M0 0 C0.33 0 0.66 0 1 0 C1.49281314 7.39219713 1.49281314 7.39219713 -0.875 10.3125 C-1.57625 10.869375 -2.2775 11.42625 -3 12 C-3.66 12.99 -4.32 13.98 -5 15 C-6 12 -6 12 -4.78515625 9.08203125 C-4.21667969 8.00308594 -3.64820313 6.92414063 -3.0625 5.8125 C-2.49660156 4.72582031 -1.93070313 3.63914062 -1.34765625 2.51953125 C-0.90292969 1.68808594 -0.45820312 0.85664063 0 0 Z " fill="#BDAE66" transform="translate(814,389)"/>
<path d="M0 0 C2 3 2 3 2 5 C1.01 5 0.02 5 -1 5 C-1.33 7.64 -1.66 10.28 -2 13 C-2.99 13 -3.98 13 -5 13 C-5 14.32 -5 15.64 -5 17 C-5.99 17.33 -6.98 17.66 -8 18 C-6.65150163 13.64029169 -4.95092154 9.68658562 -2.875 5.625 C-2.33617188 4.56539063 -1.79734375 3.50578125 -1.2421875 2.4140625 C-0.83226563 1.61742187 -0.42234375 0.82078125 0 0 Z " fill="#BEAB6B" transform="translate(122,371)"/>
<path d="M0 0 C0.33 0 0.66 0 1 0 C1.37153846 6.56384615 1.37153846 6.56384615 -0.4375 8.6875 C-0.953125 9.120625 -1.46875 9.55375 -2 10 C-2.144375 10.680625 -2.28875 11.36125 -2.4375 12.0625 C-3 14 -3 14 -5.0625 15.25 C-5.701875 15.4975 -6.34125 15.745 -7 16 C-5.35433477 10.31497465 -2.70967216 5.23318364 0 0 Z " fill="#C1B174" transform="translate(779,462)"/>
<path d="M0 0 C0.66 0 1.32 0 2 0 C0.52232949 6.64951729 -2.62136052 12.1245672 -6 18 C-6.66 17.67 -7.32 17.34 -8 17 C-8 16.34 -8 15.68 -8 15 C-7.34 15 -6.68 15 -6 15 C-5.80664062 14.28972656 -5.61328125 13.57945312 -5.4140625 12.84765625 C-5.15367187 11.92855469 -4.89328125 11.00945312 -4.625 10.0625 C-4.36976563 9.14597656 -4.11453125 8.22945313 -3.8515625 7.28515625 C-3 5 -3 5 -1 4 C-0.34786708 1.97536745 -0.34786708 1.97536745 0 0 Z " fill="#BFAA6C" transform="translate(799,467)"/>
<path d="M0 0 C0.33 1.32 0.66 2.64 1 4 C0.05125 4.2475 -0.8975 4.495 -1.875 4.75 C-5.08693191 5.6857077 -5.08693191 5.6857077 -6.375 8.125 C-6.58125 8.74375 -6.7875 9.3625 -7 10 C-8.32 9.01 -9.64 8.02 -11 7 C-7.37 4.69 -3.74 2.38 0 0 Z " fill="#606086" transform="translate(282,363)"/>
<path d="M0 0 C1.19873962 3.94727832 0.6900877 6.19730268 -1 10 C-1.99 10.33 -2.98 10.66 -4 11 C-4 11.99 -4 12.98 -4 14 C-4.66 14 -5.32 14 -6 14 C-4.50829734 9.0276578 -2.39542583 4.58154261 0 0 Z " fill="#BEAC69" transform="translate(796,427)"/>
<path d="M0 0 C0.66 0 1.32 0 2 0 C-0.43478261 8.86956522 -0.43478261 8.86956522 -2 12 C-2.99 12.33 -3.98 12.66 -5 13 C-3.58192622 8.52761347 -1.88695626 4.28853694 0 0 Z " fill="#C1AB69" transform="translate(844,325)"/>
<path d="M0 0 C0.33 0.66 0.66 1.32 1 2 C1.66 2 2.32 2 3 2 C3 2.66 3 3.32 3 4 C2.01 4 1.02 4 0 4 C-0.144375 4.598125 -0.28875 5.19625 -0.4375 5.8125 C-0.8872439 7.56150404 -1.42892341 9.28677023 -2 11 C-2.99 11.33 -3.98 11.66 -5 12 C-3.41037341 7.96479403 -1.71767682 3.98188718 0 0 Z " fill="#F8F5DB" transform="translate(113,436)"/>
<path d="M0 0 C0.33 0 0.66 0 1 0 C1.37068304 6.54873369 1.37068304 6.54873369 -0.4375 8.75 C-1.2109375 9.36875 -1.2109375 9.36875 -2 10 C-2.33 10.99 -2.66 11.98 -3 13 C-3.66 13 -4.32 13 -5 13 C-3.58192622 8.52761347 -1.88695626 4.28853694 0 0 Z " fill="#BEAD6F" transform="translate(144,324)"/>
<path d="M0 0 C-0.8125 1.9375 -0.8125 1.9375 -2 4 C-2.99 4.33 -3.98 4.66 -5 5 C-5.33 5.99 -5.66 6.98 -6 8 C-7.32 7.34 -8.64 6.68 -10 6 C-2.6 0 -2.6 0 0 0 Z " fill="#95A5A3" transform="translate(266,152)"/>
<path d="M0 0 C1 3 1 3 0.00390625 5.48046875 C-0.47175781 6.37378906 -0.94742188 7.26710938 -1.4375 8.1875 C-1.91058594 9.08855469 -2.38367188 9.98960937 -2.87109375 10.91796875 C-3.24363281 11.60503906 -3.61617187 12.29210937 -4 13 C-4.66 12.67 -5.32 12.34 -6 12 C-4.02 8.04 -2.04 4.08 0 0 Z " fill="#FAF5E0" transform="translate(799,472)"/>
<path d="M0 0 C0.66 0 1.32 0 2 0 C1.34 1.98 0.68 3.96 0 6 C-0.66 6 -1.32 6 -2 6 C-2 7.65 -2 9.3 -2 11 C-2.99 11.33 -3.98 11.66 -5 12 C-3.86726461 7.55619192 -2.71682385 3.73563279 0 0 Z " fill="#F9F4DC" transform="translate(119,424)"/>
<path d="M0 0 C0.99 0.66 1.98 1.32 3 2 C1.625 4.5 1.625 4.5 0 7 C-0.66 7 -1.32 7 -2 7 C-2.33 7.66 -2.66 8.32 -3 9 C-3 4.72290301 -2.29379749 3.44069624 0 0 Z " fill="#C1AA5F" transform="translate(829,404)"/>
<path d="M0 0 C0.33 0 0.66 0 1 0 C1.61528766 5.07612318 -0.38341651 7.82982006 -3 12 C-3.66 12 -4.32 12 -5 12 C-3.68938409 7.76570244 -2.05643741 3.92592596 0 0 Z " fill="#FCF5E0" transform="translate(138,384)"/>
<path d="M0 0 C0 0.66 0 1.32 0 2 C-3.96 3.98 -3.96 3.98 -8 6 C-8.33 4.35 -8.66 2.7 -9 1 C-8.01 1.33 -7.02 1.66 -6 2 C-1.6 0 -1.6 0 0 0 Z " fill="#5A5F7F" transform="translate(521,467)"/>
<path d="M0 0 C0.33 0 0.66 0 1 0 C1.28571429 7.42857143 1.28571429 7.42857143 -1 11 C-2.1875 9.4375 -2.1875 9.4375 -3 7 C-1.625 3.25 -1.625 3.25 0 0 Z " fill="#BCAC64" transform="translate(86,445)"/>
<path d="M0 0 C0.66 0.33 1.32 0.66 2 1 C0.35 4.63 -1.3 8.26 -3 12 C-3.33 12 -3.66 12 -4 12 C-3.125 4.25 -3.125 4.25 -2 2 C-1.34 2 -0.68 2 0 2 C0 1.34 0 0.68 0 0 Z " fill="#BDA967" transform="translate(819,427)"/>
<path d="M0 0 C1.32 0 2.64 0 4 0 C2.68938409 4.23429756 1.05643741 8.07407404 -1 12 C-2.38968056 7.83095832 -0.71035358 5.91956029 1 2 C0.67 1.34 0.34 0.68 0 0 Z " fill="#BAAB69" transform="translate(160,330)"/>
<path d="M0 0 C1.60633173 4.01582932 0.52181826 7.08675304 -1 11 C-3.08203125 12.2109375 -3.08203125 12.2109375 -5 13 C-4.54554036 11.58208592 -4.08625056 10.16571954 -3.625 8.75 C-3.24214844 7.56664062 -3.24214844 7.56664062 -2.8515625 6.359375 C-2.04826333 4.13372042 -1.10288338 2.09068328 0 0 Z " fill="#F9F3D9" transform="translate(872,321)"/>
<path d="M0 0 C0.33 0 0.66 0 1 0 C0.53680089 4.72463088 -0.09891706 8.17057052 -3 12 C-3.66 12 -4.32 12 -5 12 C-3.41037341 7.96479403 -1.71767682 3.98188718 0 0 Z " fill="#F7F1DA" transform="translate(878,309)"/>
<path d="M0 0 C0.33 0.66 0.66 1.32 1 2 C0.22265625 4.1640625 0.22265625 4.1640625 -0.9375 6.625 C-1.31777344 7.44226563 -1.69804687 8.25953125 -2.08984375 9.1015625 C-2.39019531 9.72804688 -2.69054687 10.35453125 -3 11 C-3.66 10.67 -4.32 10.34 -5 10 C-4.38545304 6.00544473 -2.29353263 3.25533664 0 0 Z " fill="#BDA868" transform="translate(153,350)"/>
<path d="M0 0 C1 3 1 3 -0.4375 6.1875 C-1.2109375 7.5796875 -1.2109375 7.5796875 -2 9 C-2.33 9 -2.66 9 -3 9 C-3.1875 5.625 -3.1875 5.625 -3 2 C-2.01 1.34 -1.02 0.68 0 0 Z " fill="#BDAA68" transform="translate(83,496)"/>
<path d="M0 0 C0.66 0 1.32 0 2 0 C1.39301257 4.12751449 -0.03810791 7.3321148 -2 11 C-2.66 10.67 -3.32 10.34 -4 10 C-3.71125 9.46375 -3.4225 8.9275 -3.125 8.375 C-1.83288192 5.64719516 -0.91441408 2.87387282 0 0 Z " fill="#F9F5DE" transform="translate(73,468)"/>
<path d="M0 0 C0.6875 1.625 0.6875 1.625 1 4 C-0.4375 7.25 -0.4375 7.25 -2 10 C-2.66 10 -3.32 10 -4 10 C-2.8905928 6.51329166 -1.73662334 3.22515763 0 0 Z " fill="#FAF6DB" transform="translate(93,478)"/>
<path d="M0 0 C0.66 0.33 1.32 0.66 2 1 C1.75 3.375 1.75 3.375 1 6 C-1.0625 7.3125 -1.0625 7.3125 -3 8 C-1.125 2.25 -1.125 2.25 0 0 Z " fill="#FBF8E3" transform="translate(850,367)"/>
<path d="M0 0 C1.13643966 3.40931897 0.86747764 4.00335456 -0.4375 7.1875 C-0.72496094 7.90292969 -1.01242187 8.61835938 -1.30859375 9.35546875 C-1.53675781 9.89816406 -1.76492188 10.44085938 -2 11 C-2.66 10.67 -3.32 10.34 -4 10 C-2.8905928 6.51329166 -1.73662334 3.22515763 0 0 Z " fill="#BFAD70" transform="translate(833,349)"/>
<path d="M0 0 C0.66 0.33 1.32 0.66 2 1 C1.67 3.31 1.34 5.62 1 8 C-0.32 7.34 -1.64 6.68 -3 6 C-2.01 4.02 -1.02 2.04 0 0 Z " fill="#66668C" transform="translate(258,187)"/>
<path d="M0 0 C0.99 0.33 1.98 0.66 3 1 C1.25 6.75 1.25 6.75 -1 9 C-1.08886184 5.80097361 -0.91058531 3.07322544 0 0 Z " fill="#BFAA6A" transform="translate(768,528)"/>
<path d="M0 0 C1.19156292 4.76625167 0.3415946 5.87879351 -2 10 C-2.66 9.67 -3.32 9.34 -4 9 C-2.68 6.03 -1.36 3.06 0 0 Z " fill="#F9F5DA" transform="translate(817,434)"/>
<path d="M0 0 C1.1875 1.625 1.1875 1.625 2 4 C0.625 7.25 0.625 7.25 -1 10 C-2.46726798 6.18510326 -1.43336419 3.70988378 0 0 Z " fill="#FCFAE5" transform="translate(821,368)"/>
<path d="M0 0 C0.66 0.33 1.32 0.66 2 1 C0.02 5.455 0.02 5.455 -2 10 C-3 6 -3 6 -2 3 C-1.34 3 -0.68 3 0 3 C0 2.01 0 1.02 0 0 Z " fill="#F8F5E0" transform="translate(123,365)"/>
<path d="M0 0 C0.66 0.33 1.32 0.66 2 1 C0.68 3.64 -0.64 6.28 -2 9 C-2.66 8.01 -3.32 7.02 -4 6 C-3.34 4.68 -2.68 3.36 -2 2 C-1.34 2 -0.68 2 0 2 C0 1.34 0 0.68 0 0 Z " fill="#BBAB67" transform="translate(877,308)"/>
<path d="M0 0 C3.465 1.485 3.465 1.485 7 3 C6.34 3.66 5.68 4.32 5 5 C2.875 4.625 2.875 4.625 1 4 C0.67 2.68 0.34 1.36 0 0 Z " fill="#565B78" transform="translate(379,232)"/>
<path d="M0 0 C1.0625 1.875 1.0625 1.875 2 4 C1.67 4.66 1.34 5.32 1 6 C0.34 6 -0.32 6 -1 6 C-1 6.66 -1 7.32 -1 8 C-1.66 8 -2.32 8 -3 8 C-1.125 2.25 -1.125 2.25 0 0 Z " fill="#C0AB69" transform="translate(804,410)"/>
</svg>
